<svg width="404" height="3002" viewBox="0 0 404 3002" fill="none" xmlns="http://www.w3.org/2000/svg">
<path opacity="0.04" fill-rule="evenodd" clip-rule="evenodd" d="M-2046.75 1132.48C-2026.05 1126.9 -1870.89 1038.97 -1848.04 1022.47L-1846.84 1022.28C-1847.11 1019.13 -1847.3 1017.93 -1847.62 1017.49C-1849.72 1013.66 -1851.82 1009.82 -1854.36 1006.31C-1909.12 917.472 -1937.07 821.319 -1931.48 716.996C-1920.79 523.413 -1830.95 378.339 -1658.48 286.609C-1498.91 212.209 -1341.34 217.475 -1187.53 303.675C-1125.59 338.532 -1075.19 387.057 -1033.63 444.638L-504.406 1177.81L-487.59 1201.1C-485.105 1204.23 -482.407 1207.27 -479.513 1210.18C-477.661 1213.84 -475.632 1217.36 -473.444 1220.7L-456.628 1244L72.5922 1977.17C114.156 2034.75 144.34 2097.87 157.921 2167.63C191.3 2340.76 146.679 2491.97 25.8165 2620C-115.556 2754.81 -281.539 2794.39 -468.641 2743.58C-569.418 2716.04 -651.877 2659.23 -718.948 2579.28C-721.486 2575.76 -724.464 2572.56 -727.442 2569.36C-727.759 2568.92 -728.833 2568.36 -731.738 2567.11L-732.3 2568.19C-755.157 2584.69 -887.468 2704.26 -899.289 2722.15C-895.715 2730.46 -889.006 2737.04 -882.556 2743.37C-881.873 2744.04 -881.193 2744.71 -880.52 2745.38C-790.086 2834.54 -687.269 2904.73 -569.309 2953.3C-465.997 2996.4 -358.99 3009.41 -248.265 2997.02C-150.579 2986.01 -58.9667 2957.32 27.5721 2909.56C359.833 2725.22 484.648 2327.58 349.72 1997.09C328.029 1943.88 300.746 1894.05 267.115 1847.45L-274.479 1097.14C-280.104 1089.35 -285.939 1081.96 -292.558 1075.23C-296.859 1066.83 -302.037 1058.96 -307.662 1051.17L-849.257 300.858C-882.888 254.266 -921.6 212.677 -965.268 175.336C-1236.46 -56.7982 -1653.17 -63.5478 -1932.76 193.761C-2005.34 260.858 -2061.42 338.776 -2102.63 428.026C-2149.26 529.213 -2170.6 634.875 -2162.23 746.502C-2153.28 873.755 -2119.03 993.445 -2062.89 1107.36C-2062.47 1108.2 -2062.05 1109.06 -2061.62 1109.92C-2057.65 1118.03 -2053.51 1126.48 -2046.75 1132.48Z" fill="#1F6FFF"/>
</svg>
