<svg width="79" height="504" viewBox="0 0 79 504" fill="none" xmlns="http://www.w3.org/2000/svg">
<path fill-rule="evenodd" clip-rule="evenodd" d="M218.573 104.912C215.566 106.05 188.986 108.976 184.759 108.976L184.596 109.058C184.352 108.651 184.271 108.489 184.271 108.407C184.19 107.757 184.109 107.107 184.109 106.457C182.971 90.85 177.931 76.7065 168.096 64.5139C149.807 41.9169 126.153 32.1628 97.1346 36.1457C71.2049 41.1041 52.5096 55.5726 41.3736 79.5515C36.903 89.2243 35.0335 99.5474 35.0335 110.196V245.778V250.086C35.006 250.684 34.9441 251.29 34.8477 251.898C34.9441 252.506 35.006 253.111 35.0335 253.71V258.018V393.6C35.0335 404.248 36.903 414.571 41.3736 424.244C52.5096 448.223 71.2049 462.691 97.1346 467.65C126.153 471.633 149.807 461.879 168.096 439.281C177.931 427.089 182.971 412.945 184.109 397.339C184.109 396.689 184.19 396.038 184.271 395.388C184.271 395.307 184.352 395.144 184.596 394.738L184.759 394.819C188.986 394.819 215.566 397.745 218.573 398.883C218.867 400.206 218.629 401.596 218.401 402.932C218.377 403.073 218.353 403.214 218.329 403.354C215.159 422.131 208.819 439.688 198.74 455.945C189.961 470.251 178.094 481.224 163.544 489.434C150.701 496.668 137.045 501.22 122.333 503.008C65.7589 509.755 15.6879 472.364 3.08884 420.342C1.05673 411.97 0 403.516 0 394.9V256.148C0 254.707 0.0607679 253.297 0.275147 251.898C0.0607679 250.499 0 249.088 0 247.647V108.895C0 100.279 1.05673 91.8254 3.08884 83.4531C15.6879 31.4313 65.7589 -5.95945 122.333 0.787139C137.045 2.57539 150.701 7.1273 163.544 14.3616C178.094 22.5713 189.961 33.5446 198.74 47.8507C208.819 64.1075 215.159 81.6649 218.329 100.442C218.353 100.582 218.377 100.722 218.401 100.864C218.629 102.2 218.867 103.589 218.573 104.912Z" fill="#1B2E59"/>
</svg>
