<svg width="1920" height="355" viewBox="0 0 1920 355" fill="none" xmlns="http://www.w3.org/2000/svg">
<mask id="mask0_2_48" style="mask-type:alpha" maskUnits="userSpaceOnUse" x="-3" y="0" width="1929" height="355">
<rect x="-3" width="1929" height="355" fill="#1F6FFF"/>
</mask>
<g mask="url(#mask0_2_48)">
<path fill-rule="evenodd" clip-rule="evenodd" d="M1939.63 331.416C1938.91 328.297 1926.58 304.678 1924.23 301.179L1924.21 301C1923.74 301.023 1923.56 301.045 1923.49 301.09C1922.9 301.382 1922.32 301.674 1921.78 302.034C1908.17 309.719 1893.6 313.365 1878 311.964C1849.05 309.316 1827.81 295.128 1815 268.906C1804.73 244.701 1806.38 221.228 1820.13 198.756C1825.7 189.708 1833.24 182.455 1842.1 176.569L1954.85 101.623L1958.43 99.2419C1958.92 98.888 1959.39 98.5017 1959.84 98.0857C1960.4 97.8296 1960.94 97.5463 1961.45 97.2384L1965.03 94.8571L2077.78 19.9118C2086.64 14.0258 2096.26 9.86701 2106.79 8.22081C2132.92 4.18396 2155.33 11.6615 2173.85 30.3842C2193.28 52.2029 2198.31 77.1742 2189.67 104.804C2184.99 119.685 2176.03 131.675 2163.68 141.243C2163.14 141.603 2162.65 142.03 2162.15 142.456C2162.08 142.501 2161.99 142.658 2161.79 143.085L2161.95 143.175C2164.29 146.673 2181.49 167.058 2184.11 168.918C2185.37 168.43 2186.39 167.465 2187.38 166.538C2187.48 166.44 2187.58 166.342 2187.69 166.245C2201.54 153.242 2212.62 138.288 2220.55 120.959C2227.57 105.785 2230.1 89.8953 2228.85 73.3135C2227.73 58.6838 2223.94 44.8639 2217.25 31.6971C2191.45 -18.8617 2132.54 -39.6402 2082.28 -21.3132C2074.19 -18.3673 2066.58 -14.5692 2059.41 -9.80649L1944.02 66.8911C1942.82 67.6879 1941.68 68.5182 1940.64 69.4693C1939.36 70.0649 1938.15 70.7942 1936.95 71.5905L1821.56 148.288C1814.4 153.051 1807.95 158.598 1802.12 164.908C1765.85 204.093 1762.56 266.209 1799.59 309.309C1809.25 320.499 1820.62 329.286 1833.77 335.918C1848.67 343.424 1864.39 347.182 1881.16 346.54C1900.28 345.897 1918.4 341.44 1935.78 333.685C1935.91 333.627 1936.04 333.569 1936.17 333.511C1937.41 332.962 1938.69 332.391 1939.63 331.416Z" fill="#FF5128"/>
</g>
</svg>
