<svg width="344" height="983" viewBox="0 0 344 983" fill="none" xmlns="http://www.w3.org/2000/svg">
<g opacity="0.2">
<mask id="mask0_2_311" style="mask-type:alpha" maskUnits="userSpaceOnUse" x="-739" y="89" width="994" height="741">
<path d="M-51.9677 720.146C-47.9539 734.253 -12.9463 820.189 -6.29209 829.146C-1.09993 828.842 3.74602 826.29 8.39785 824.087C68.0577 795.675 120.638 757.841 165.326 708.762C204.739 665.877 230.094 615.847 243.679 559.488C255.629 509.754 257.854 459.853 249.851 409.05C218.645 213.82 46.2989 82.2086 -139.297 89.559C-169.171 90.7271 -198.39 95.2278 -227.147 103.41C-381.517 147.331 -535.886 191.252 -690.256 235.173C-698.124 237.411 -705.566 240.115 -712.467 244.718C-738.446 262.667 -743.944 293.851 -734.207 317.767C-720.76 350.598 -689.038 360.048 -665.126 354.418C-660.243 353.029 -655.631 351.716 -650.747 350.327C-499.905 307.409 -349.062 264.492 -198.22 221.574C-162.679 211.462 -126.449 207.899 -89.9188 213.635C0.689517 228.032 66.7343 276.69 107.907 358.525C148.757 451.596 138.663 539.807 80.6095 622.307C49.2544 666.713 6.83395 696.964 -44.1749 715.583C-46.3453 716.2 -48.4386 717.089 -50.5318 717.978C-50.8031 718.055 -51.2684 718.481 -52.3933 719.681L-51.9677 720.146Z" fill="white"/>
</mask>
<g mask="url(#mask0_2_311)">
<rect width="349.335" height="324.554" transform="matrix(-0.178047 -0.984022 -0.984022 0.178047 256.048 357.252)" fill="white"/>
</g>
</g>
</svg>
