<svg width="125" height="164" viewBox="0 0 125 164" fill="none" xmlns="http://www.w3.org/2000/svg">
<path d="M179.11 84.8334C182.971 86.5526 206.063 100.037 208.347 102.3C208.049 103.769 207.124 105.047 206.306 106.285C195.773 122.149 182.84 135.609 167.02 146.361C153.181 155.86 137.877 161.057 121.245 162.639C106.57 164.024 92.2438 162.629 78.076 158.278C23.6492 141.431 -6.88478 86.907 2.76462 34.2582C4.31351 25.7832 6.7865 17.6307 10.291 9.75947C29.1028 -32.4926 47.9147 -74.7447 66.7265 -116.997C67.6853 -119.15 68.7596 -121.163 70.3536 -122.945C76.5313 -129.626 85.6512 -129.925 92.078 -126.174C100.897 -121.002 102.302 -111.568 99.7231 -104.975C99.128 -103.638 98.5659 -102.376 97.9708 -101.04C79.5888 -59.7527 61.2067 -18.466 42.8247 22.8208C38.4936 32.5484 36.0028 42.7394 36.1526 53.3943C36.5727 79.8295 47.7669 100.651 69.438 115.727C94.3277 131.169 119.904 131.879 145.803 118.674C159.747 111.536 170.103 100.665 177.491 86.8709C177.755 86.2768 178.094 85.7158 178.433 85.1549C178.466 85.0806 178.606 84.9652 178.994 84.6931L179.11 84.8334Z" fill="#E9F1FF"/>
</svg>
