<svg width="22" height="22" viewBox="0 0 22 22" fill="none" xmlns="http://www.w3.org/2000/svg">
<path d="M14.1391 10.8125C13.7387 10.5554 13.3041 10.3559 12.8481 10.2198C12.5684 10.1352 12.2586 10.0524 11.9377 9.97265C11.6586 9.89483 11.3264 9.81499 10.9155 9.72465C10.4263 9.62213 9.94606 9.4804 9.47954 9.30082C9.23917 9.2073 9.02707 9.05323 8.86382 8.85356C8.74467 8.69027 8.68818 8.4896 8.70464 8.28813C8.70409 8.07202 8.77595 7.86195 8.90874 7.69145C9.09502 7.47294 9.33673 7.30866 9.60845 7.21586C10.0661 7.05865 10.5485 6.98553 11.0322 7.00005C11.4059 6.99406 11.7784 7.04342 12.1377 7.14653C12.3762 7.21331 12.6009 7.32211 12.8013 7.46782C12.9307 7.56008 13.0411 7.67647 13.1264 7.8106C13.1884 7.92664 13.2727 8.02931 13.3744 8.11273C13.4761 8.19614 13.5933 8.25866 13.7192 8.29671C13.8451 8.33475 13.9773 8.34757 14.1082 8.33442C14.2391 8.32128 14.3661 8.28243 14.4819 8.22011C14.5978 8.15778 14.7002 8.07321 14.7833 7.97123C14.8664 7.86925 14.9285 7.75188 14.9662 7.62583C15.0038 7.49979 15.0162 7.36755 15.0027 7.23671C14.9891 7.10586 14.9499 6.97898 14.8872 6.86333C14.6762 6.4903 14.3912 6.1643 14.0498 5.90533C13.6555 5.60244 13.2083 5.37559 12.731 5.23638C12.1797 5.07338 11.6071 4.99372 11.0322 5.00005C10.3018 4.98453 9.5747 5.10336 8.88722 5.35064C8.26519 5.57642 7.7186 5.97147 7.30907 6.49126C6.91715 7.00834 6.70488 7.63931 6.70458 8.28814C6.68838 8.93408 6.89301 9.56622 7.28466 10.0801C7.66273 10.5564 8.15833 10.9259 8.72266 11.1524C9.14908 11.3164 9.58568 11.4527 10.0297 11.5603C10.0381 11.563 10.0437 11.5698 10.0522 11.5723C10.2436 11.6299 10.5498 11.7071 10.9922 11.8028C11.1645 11.8398 11.327 11.8806 11.4893 11.9212C11.5051 11.9259 11.5278 11.9309 11.543 11.9356L11.561 11.9383C11.8094 12.0016 12.0481 12.067 12.2666 12.1338C12.5359 12.2124 12.7929 12.3281 13.0303 12.4776C13.1779 12.5706 13.302 12.6966 13.3926 12.8457C13.4807 13.0276 13.5215 13.2289 13.5112 13.4307C13.5252 13.6921 13.4498 13.9504 13.2974 14.1632C13.0914 14.4311 12.8127 14.6341 12.4946 14.7482C12.0211 14.9309 11.5156 15.0165 11.0083 15C10.4211 15.0228 9.83706 14.9049 9.30468 14.6563C9.05899 14.5254 8.84795 14.3379 8.68895 14.1094C8.57746 13.9631 8.50776 13.7893 8.48729 13.6065C8.48729 13.3413 8.38193 13.0869 8.19439 12.8994C8.00686 12.7119 7.7525 12.6065 7.48729 12.6065C7.22207 12.6065 6.96772 12.7119 6.78018 12.8994C6.59264 13.0869 6.48729 13.3413 6.48729 13.6065C6.50406 14.1962 6.69784 14.7671 7.04345 15.2452C7.38889 15.743 7.84912 16.1503 8.38524 16.4327C9.20095 16.8308 10.101 17.0255 11.0083 17C11.7793 17.0186 12.546 16.8807 13.2622 16.5948C13.9279 16.3394 14.506 15.8977 14.9272 15.3223C15.3275 14.7613 15.5325 14.0844 15.5107 13.3956C15.52 12.8616 15.3908 12.3344 15.1357 11.8653C14.8894 11.442 14.5483 11.0816 14.1391 10.8125ZM21.3613 12.6915C21.6313 11.0478 21.5059 9.3634 20.9957 7.77774C20.4855 6.19209 19.605 4.75071 18.4272 3.57287C17.2493 2.39502 15.808 1.51457 14.2223 1.00434C12.6366 0.494113 10.9523 0.368783 9.30858 0.638719C8.0952 0.0569825 6.73117 -0.133774 5.40476 0.092778C4.07834 0.31933 2.85496 0.95202 1.90346 1.90352C0.951959 2.85502 0.319269 4.0784 0.0927169 5.40482C-0.133835 6.73123 0.0569214 8.09526 0.638658 9.30864C0.368722 10.9523 0.494052 12.6367 1.00428 14.2224C1.51451 15.808 2.39496 17.2494 3.57281 18.4272C4.75065 19.6051 6.19203 20.4855 7.77768 20.9958C9.36334 21.506 11.0477 21.6313 12.6914 21.3614C13.9048 21.9431 15.2688 22.1339 16.5952 21.9073C17.9216 21.6808 19.145 21.0481 20.0965 20.0966C21.048 19.1451 21.6807 17.9217 21.9073 16.5953C22.1338 15.2689 21.9431 13.9048 21.3613 12.6915ZM15.5 20C14.7414 19.9998 13.9952 19.808 13.3306 19.4424C13.1243 19.3286 12.8846 19.2909 12.6533 19.336C11.4209 19.5818 10.1492 19.5511 8.93009 19.2459C7.71098 18.9408 6.57478 18.3688 5.60348 17.5714C4.63217 16.7739 3.84996 15.7708 3.31328 14.6345C2.7766 13.4981 2.49882 12.2568 2.49999 11C2.50102 10.4446 2.55596 9.89057 2.66405 9.34575C2.7092 9.11474 2.6717 8.8752 2.5581 8.66905C2.08807 7.81512 1.90807 6.83166 2.04516 5.86661C2.18225 4.90156 2.62902 4.00713 3.31826 3.31788C4.0075 2.62864 4.90192 2.18185 5.86697 2.04475C6.83202 1.90766 7.81549 2.08765 8.66942 2.55767C8.87556 2.67187 9.11543 2.70957 9.34667 2.66411C10.5791 2.41827 11.8508 2.44904 13.0699 2.75419C14.289 3.05934 15.4252 3.63127 16.3965 4.42872C17.3678 5.22617 18.15 6.22926 18.6867 7.36563C19.2234 8.502 19.5012 9.74332 19.5 11C19.499 11.5555 19.444 12.1095 19.3359 12.6543C19.2908 12.8854 19.3283 13.1249 19.4419 13.3311C19.8192 14.0162 20.0114 14.7878 19.9995 15.5698C19.9876 16.3518 19.7721 17.1172 19.3741 17.7905C18.9761 18.4638 18.4095 19.0217 17.7301 19.4091C17.0507 19.7966 16.2821 20.0003 15.5 20Z" fill="black"/>
</svg>
