<svg width="134" height="401" viewBox="0 0 134 401" fill="none" xmlns="http://www.w3.org/2000/svg">
<path fill-rule="evenodd" clip-rule="evenodd" d="M218.573 1.91214C215.566 3.05012 188.986 5.97635 184.759 5.97635L184.596 6.05761C184.352 5.65119 184.271 5.48863 184.271 5.40735C184.19 4.75707 184.109 4.1068 184.109 3.45654C182.971 -12.15 177.931 -26.2935 168.096 -38.4861C149.807 -61.0831 126.153 -70.8372 97.1346 -66.8543C71.2049 -61.8959 52.5096 -47.4274 41.3736 -23.4485C36.903 -13.7757 35.0335 -3.45261 35.0335 7.19561V142.778V147.086C35.006 147.684 34.9441 148.29 34.8477 148.898C34.9441 149.506 35.006 150.111 35.0335 150.71V155.018V290.6C35.0335 301.248 36.903 311.571 41.3736 321.244C52.5096 345.223 71.2049 359.691 97.1346 364.65C126.153 368.633 149.807 358.879 168.096 336.281C177.931 324.089 182.971 309.945 184.109 294.339C184.109 293.689 184.19 293.038 184.271 292.388C184.271 292.307 184.352 292.144 184.596 291.738L184.759 291.819C188.986 291.819 215.566 294.745 218.573 295.883C218.867 297.206 218.629 298.596 218.401 299.932C218.377 300.073 218.353 300.214 218.329 300.354C215.159 319.131 208.819 336.688 198.74 352.945C189.961 367.251 178.094 378.224 163.544 386.434C150.701 393.668 137.045 398.22 122.333 400.008C65.7589 406.755 15.6879 369.364 3.08884 317.342C1.05673 308.97 0 300.516 0 291.9V153.148C0 151.707 0.0607679 150.297 0.275147 148.898C0.0607679 147.499 0 146.088 0 144.647V5.89506C0 -2.72106 1.05673 -11.1746 3.08884 -19.5469C15.6879 -71.5687 65.7589 -108.959 122.333 -102.213C137.045 -100.425 150.701 -95.8727 163.544 -88.6384C178.094 -80.4287 189.961 -69.4554 198.74 -55.1493C208.819 -38.8925 215.159 -21.3351 218.329 -2.55849C218.353 -2.41842 218.377 -2.2776 218.401 -2.13618C218.629 -0.800415 218.867 0.589104 218.573 1.91214Z" fill="#FF5128"/>
</svg>
