<svg width="128" height="377" viewBox="0 0 128 377" fill="none" xmlns="http://www.w3.org/2000/svg">
<path fill-rule="evenodd" clip-rule="evenodd" d="M-39.2014 361.289C-38.4776 358.156 -26.1502 334.427 -23.8029 330.912L-23.7802 330.731C-23.3068 330.754 -23.1264 330.777 -23.0588 330.822C-22.4729 331.116 -21.887 331.409 -21.3462 331.77C-7.73536 339.491 6.82548 343.154 22.4272 341.746C51.3762 339.086 72.6238 324.832 85.4267 298.488C95.703 274.17 94.0528 250.588 80.2955 228.01C74.7341 218.921 67.1873 211.633 58.3319 205.719L-54.4221 130.425L-58.0048 128.032C-58.4877 127.676 -58.9572 127.288 -59.4095 126.87C-59.968 126.613 -60.5055 126.329 -61.0182 126.019L-64.6009 123.627L-177.355 48.3318C-186.21 42.4183 -195.833 38.2402 -206.36 36.5863C-232.486 32.5306 -254.901 40.043 -273.424 58.8531C-292.852 80.7736 -297.876 105.861 -289.24 133.62C-284.562 148.571 -275.599 160.616 -263.252 170.23C-262.711 170.591 -262.216 171.019 -261.72 171.448C-261.652 171.493 -261.562 171.651 -261.36 172.08L-261.518 172.17C-263.865 175.685 -281.059 196.164 -283.676 198.033C-284.94 197.543 -285.963 196.574 -286.947 195.642C-287.051 195.543 -287.155 195.445 -287.258 195.348C-301.113 182.284 -312.193 167.261 -320.116 149.851C-327.138 134.605 -329.673 118.642 -328.42 101.983C-327.304 87.2847 -323.506 73.4004 -316.823 60.1721C-291.016 9.37738 -232.114 -11.498 -181.855 6.91451C-173.763 9.8741 -166.146 13.6899 -158.981 18.4749L-43.5905 95.5304C-42.3918 96.3309 -41.252 97.1651 -40.2075 98.1206C-38.9257 98.719 -37.7192 99.4517 -36.5213 100.252L78.8691 177.307C86.0345 182.092 92.4779 187.665 98.312 194.005C134.578 233.373 137.867 295.778 100.838 339.079C91.1808 350.321 79.8117 359.15 66.6633 365.813C51.7557 373.353 36.0394 377.129 19.2669 376.484C0.149825 375.838 -17.9724 371.36 -35.3481 363.569C-35.4775 363.511 -35.608 363.453 -35.7391 363.394C-36.9768 362.843 -38.2644 362.269 -39.2014 361.289Z" fill="#FF5128"/>
</svg>
